P3
128 16
255
  0   0   0  26  26  26  66  66  66 185 185 185 228 228 228 
247 247 247 228 228 228 185 185 185  66  66  66   0   0   0 
  6   6   6  66  66  66 123 123 123 185 185 185 247 247 247 
247 247 247 185 185 185 123 123 123  66  66  66   6   6   6 
 26  26  26  66  66  66 185 185 185 228 228 228 247 247 247 
228 228 228 185 185 185  66  66  66  26  26  26   6   6   6 
185 185 185 228 228 228 247 247 247 228 228 228 185 185 185 
 66  66  66  26  26  26   0   0   0  26  26  26  66  66  66 
185 185 185 228 228 228 247 247 247 228 228 228 185 185 185 
123 123 123  26  26  26  66  66  66 185 185 185 228 228 228 
247 247 247 228 228 228 185 185 185 123 123 123   0   0   0 
  6   6   6  66  66  66 123 123 123 185 185 185 247 247 247 
247 247 247 228 228 228 123 123 123  66  66  66   6   6   6 
 26  26  26  66  66  66 185 185 185 228 228 228 247 247 247 
228 228 228 185 185 185  66  66  66  26  26  26   6   6   6 
185 185 185 228 228 228 247 247 247 228 228 228 185 185 185 
 66  66  66  26  26  26   0   0   0  26  26  26  66  66  66 
123 123 123 228 228 228 247 247 247 228 228 228 185 185 185 
123 123 123  66  66  66 123 123 123 185 185 185 247 247 247 
247 247 247 185 185 185 123 123 123  66  66  66   6   6   6 
 26  26  26  66  66  66 185 185 185 228 228 228 247 247 247 
228 228 228 185 185 185  66  66  66   0   0   0   6   6   6 
 66  66  66 123 123 123 228 228 228 247 247 247 247 247 247 
185 185 185 123 123 123  66  66  66   6   6   6 123 123 123 
228 228 228 247 247 247 247 247 247 185 185 185 123 123 123 
 66  66  66   0   0   0   6   6   6   0   0   0  25  25  25 
 65  65  65 183 183 183 227 227 227 246 246 246 227 227 227 
183 183 183  65  65  65   0   0   0   5   5   5  65  65  65 
121 121 121 183 183 183 246 246 246 246 246 246 183 183 183 
121 121 121  65  65  65   5   5   5  25  25  25  65  65  65 
183 183 183 227 227 227 246 246 246 227 227 227 183 183 183 
 65  65  65  25  25  25   5   5   5 183 183 183 227 227 227 
246 246 246 227 227 227 183 183 183  65  65  65  25  25  25 
  0   0   0  25  25  25  65  65  65 183 183 183 227 227 227 
246 246 246 227 227 227 183 183 183 121 121 121  25  25  25 
 65  65  65 183 183 183 227 227 227 246 246 246 227 227 227 
183 183 183 121 121 121   0   0   0   5   5   5  65  65  65 
121 121 121 183 183 183 246 246 246 246 246 246 227 227 227 
121 121 121  65  65  65   5   5   5  25  25  25  65  65  65 
183 183 183 227 227 227 246 246 246 227 227 227 183 183 183 
 65  65  65  25  25  25   5   5   5 183 183 183 227 227 227 
246 246 246 227 227 227 183 183 183  65  65  65  25  25  25 
  0   0   0  25  25  25  65  65  65 121 121 121 227 227 227 
246 246 246 227 227 227 183 183 183 121 121 121  65  65  65 
121 121 121 183 183 183 246 246 246 246 246 246 183 183 183 
121 121 121  65  65  65   5   5   5  25  25  25  65  65  65 
183 183 183 227 227 227 246 246 246 227 227 227 183 183 183 
 65  65  65   0   0   0   5   5   5  65  65  65 121 121 121 
227 227 227 246 246 246 246 246 246 183 183 183 121 121 121 
 65  65  65   5   5   5 121 121 121 227 227 227 246 246 246 
246 246 246 183 183 183 121 121 121  65  65  65   0   0   0 
  5   5   5   0   0   0  25  25  25  63  63  63 181 181 181 
226 226 226 248 248 248 226 226 226 181 181 181  63  63  63 
  0   0   0   4   4   4  63  63  63 118 118 118 181 181 181 
248 248 248 248 248 248 181 181 181 118 118 118  63  63  63 
  4   4   4  25  25  25  63  63  63 181 181 181 226 226 226 
248 248 248 226 226 226 181 181 181  63  63  63  25  25  25 
  4   4   4 181 181 181 226 226 226 248 248 248 226 226 226 
181 181 181  63  63  63  25  25  25   0   0   0  25  25  25 
 63  63  63 181 181 181 226 226 226 248 248 248 226 226 226 
181 181 181 118 118 118  25  25  25  63  63  63 181 181 181 
226 226 226 248 248 248 226 226 226 181 181 181 118 118 118 
  0   0   0   4   4   4  63  63  63 118 118 118 181 181 181 
248 248 248 248 248 248 226 226 226 118 118 118  63  63  63 
  4   4   4  25  25  25  63  63  63 181 181 181 226 226 226 
248 248 248 226 226 226 181 181 181  63  63  63  25  25  25 
  4   4   4 181 181 181 226 226 226 248 248 248 226 226 226 
181 181 181  63  63  63  25  25  25   0   0   0  25  25  25 
 63  63  63 118 118 118 226 226 226 248 248 248 226 226 226 
181 181 181 118 118 118  63  63  63 118 118 118 181 181 181 
248 248 248 248 248 248 181 181 181 118 118 118  63  63  63 
  4   4   4  25  25  25  63  63  63 181 181 181 226 226 226 
248 248 248 226 226 226 181 181 181  63  63  63   0   0   0 
  4   4   4  63  63  63 118 118 118 226 226 226 248 248 248 
248 248 248 181 181 181 118 118 118  63  63  63   4   4   4 
118 118 118 226 226 226 248 248 248 248 248 248 181 181 181 
118 118 118  63  63  63   0   0   0   4   4   4   0   0   0 
 25  25  25  62  62  62 181 181 181 227 227 227 248 248 248 
227 227 227 181 181 181  62  62  62   0   0   0   4   4   4 
 62  62  62 118 118 118 181 181 181 248 248 248 248 248 248 
181 181 181 118 118 118  62  62  62   4   4   4  25  25  25 
 62  62  62 181 181 181 227 227 227 248 248 248 227 227 227 
181 181 181  62  62  62  25  25  25   4   4   4 181 181 181 
227 227 227 248 248 248 227 227 227 181 181 181  62  62  62 
 25  25  25   0   0   0  25  25  25  62  62  62 181 181 181 
227 227 227 248 248 248 227 227 227 181 181 181 118 118 118 
 25  25  25  62  62  62 181 181 181 227 227 227 248 248 248 
227 227 227 181 181 181 118 118 118   0   0   0   4   4   4 
 62  62  62 118 118 118 181 181 181 248 248 248 248 248 248 
227 227 227 118 118 118  62  62  62   4   4   4  25  25  25 
 62  62  62 181 181 181 227 227 227 248 248 248 227 227 227 
181 181 181  62  62  62  25  25  25   4   4   4 181 181 181 
227 227 227 248 248 248 227 227 227 181 181 181  62  62  62 
 25  25  25   0   0   0  25  25  25  62  62  62 118 118 118 
227 227 227 248 248 248 227 227 227 181 181 181 118 118 118 
 62  62  62 118 118 118 181 181 181 248 248 248 248 248 248 
181 181 181 118 118 118  62  62  62   4   4   4  25  25  25 
 62  62  62 181 181 181 227 227 227 248 248 248 227 227 227 
181 181 181  62  62  62   0   0   0   4   4   4  62  62  62 
118 118 118 227 227 227 248 248 248 248 248 248 181 181 181 
118 118 118  62  62  62   4   4   4 118 118 118 227 227 227 
248 248 248 248 248 248 181 181 181 118 118 118  62  62  62 
  0   0   0   4   4   4   0   0   0  26  26  26  65  65  65 
183 183 183 227 227 227 247 247 247 227 227 227 183 183 183 
 65  65  65   0   0   0   5   5   5  65  65  65 121 121 121 
183 183 183 247 247 247 247 247 247 183 183 183 121 121 121 
 65  65  65   5   5   5  26  26  26  65  65  65 183 183 183 
227 227 227 247 247 247 227 227 227 183 183 183  65  65  65 
 26  26  26   5   5   5 183 183 183 227 227 227 247 247 247 
227 227 227 183 183 183  65  65  65  26  26  26   0   0   0 
 26  26  26  65  65  65 183 183 183 227 227 227 247 247 247 
227 227 227 183 183 183 121 121 121  26  26  26  65  65  65 
183 183 183 227 227 227 247 247 247 227 227 227 183 183 183 
121 121 121   0   0   0   5   5   5  65  65  65 121 121 121 
183 183 183 247 247 247 247 247 247 227 227 227 121 121 121 
 65  65  65   5   5   5  26  26  26  65  65  65 183 183 183 
227 227 227 247 247 247 227 227 227 183 183 183  65  65  65 
 26  26  26   5   5   5 183 183 183 227 227 227 247 247 247 
227 227 227 183 183 183  65  65  65  26  26  26   0   0   0 
 26  26  26  65  65  65 121 121 121 227 227 227 247 247 247 
227 227 227 183 183 183 121 121 121  65  65  65 121 121 121 
183 183 183 247 247 247 247 247 247 183 183 183 121 121 121 
 65  65  65   5   5   5  26  26  26  65  65  65 183 183 183 
227 227 227 247 247 247 227 227 227 183 183 183  65  65  65 
  0   0   0   5   5   5  65  65  65 121 121 121 227 227 227 
247 247 247 247 247 247 183 183 183 121 121 121  65  65  65 
  5   5   5 121 121 121 227 227 227 247 247 247 247 247 247 
183 183 183 121 121 121  65  65  65   0   0   0   5   5   5 
  0   0   0  26  26  26  65  65  65 185 185 185 229 229 229 
248 248 248 229 229 229 185 185 185  65  65  65   0   0   0 
  6   6   6  65  65  65 123 123 123 185 185 185 248 248 248 
248 248 248 185 185 185 123 123 123  65  65  65   6   6   6 
 26  26  26  65  65  65 185 185 185 229 229 229 248 248 248 
229 229 229 185 185 185  65  65  65  26  26  26   6   6   6 
185 185 185 229 229 229 248 248 248 229 229 229 185 185 185 
 65  65  65  26  26  26   0   0   0  26  26  26  65  65  65 
185 185 185 229 229 229 248 248 248 229 229 229 185 185 185 
123 123 123  26  26  26  65  65  65 185 185 185 229 229 229 
248 248 248 229 229 229 185 185 185 123 123 123   0   0   0 
  6   6   6  65  65  65 123 123 123 185 185 185 248 248 248 
248 248 248 229 229 229 123 123 123  65  65  65   6   6   6 
 26  26  26  65  65  65 185 185 185 229 229 229 248 248 248 
229 229 229 185 185 185  65  65  65  26  26  26   6   6   6 
185 185 185 229 229 229 248 248 248 229 229 229 185 185 185 
 65  65  65  26  26  26   0   0   0  26  26  26  65  65  65 
123 123 123 229 229 229 248 248 248 229 229 229 185 185 185 
123 123 123  65  65  65 123 123 123 185 185 185 248 248 248 
248 248 248 185 185 185 123 123 123  65  65  65   6   6   6 
 26  26  26  65  65  65 185 185 185 229 229 229 248 248 248 
229 229 229 185 185 185  65  65  65   0   0   0   6   6   6 
 65  65  65 123 123 123 229 229 229 248 248 248 248 248 248 
185 185 185 123 123 123  65  65  65   6   6   6 123 123 123 
229 229 229 248 248 248 248 248 248 185 185 185 123 123 123 
 65  65  65   0   0   0   6   6   6   0   0   0  25  25  25 
 63  63  63 180 180 180 225 225 225 244 244 244 225 225 225 
180 180 180  63  63  63   0   0   0   6   6   6  63  63  63 
119 119 119 180 180 180 244 244 244 244 244 244 180 180 180 
119 119 119  63  63  63   6   6   6  25  25  25  63  63  63 
180 180 180 225 225 225 244 244 244 225 225 225 180 180 180 
 63  63  63  25  25  25   6   6   6 180 180 180 225 225 225 
244 244 244 225 225 225 180 180 180  63  63  63  25  25  25 
  0   0   0  25  25  25  63  63  63 180 180 180 225 225 225 
244 244 244 225 225 225 180 180 180 119 119 119  25  25  25 
 63  63  63 180 180 180 225 225 225 244 244 244 225 225 225 
180 180 180 119 119 119   0   0   0   6   6   6  63  63  63 
119 119 119 180 180 180 244 244 244 244 244 244 225 225 225 
119 119 119  63  63  63   6   6   6  25  25  25  63  63  63 
180 180 180 225 225 225 244 244 244 225 225 225 180 180 180 
 63  63  63  25  25  25   6   6   6 180 180 180 225 225 225 
244 244 244 225 225 225 180 180 180  63  63  63  25  25  25 
  0   0   0  25  25  25  63  63  63 119 119 119 225 225 225 
244 244 244 225 225 225 180 180 180 119 119 119  63  63  63 
119 119 119 180 180 180 244 244 244 244 244 244 180 180 180 
119 119 119  63  63  63   6   6   6  25  25  25  63  63  63 
180 180 180 225 225 225 244 244 244 225 225 225 180 180 180 
 63  63  63   0   0   0   6   6   6  63  63  63 119 119 119 
225 225 225 244 244 244 244 244 244 180 180 180 119 119 119 
 63  63  63   6   6   6 119 119 119 225 225 225 244 244 244 
244 244 244 180 180 180 119 119 119  63  63  63   0   0   0 
  6   6   6   0   0   0  25  25  25  62  62  62 178 178 178 
222 222 222 241 241 241 222 222 222 178 178 178  62  62  62 
  0   0   0   7   7   7  62  62  62 118 118 118 178 178 178 
241 241 241 241 241 241 178 178 178 118 118 118  62  62  62 
  7   7   7  25  25  25  62  62  62 178 178 178 222 222 222 
241 241 241 222 222 222 178 178 178  62  62  62  25  25  25 
  7   7   7 178 178 178 222 222 222 241 241 241 222 222 222 
178 178 178  62  62  62  25  25  25   0   0   0  25  25  25 
 62  62  62 178 178 178 222 222 222 241 241 241 222 222 222 
178 178 178 118 118 118  25  25  25  62  62  62 178 178 178 
222 222 222 241 241 241 222 222 222 178 178 178 118 118 118 
  0   0   0   7   7   7  62  62  62 118 118 118 178 178 178 
241 241 241 241 241 241 222 222 222 118 118 118  62  62  62 
  7   7   7  25  25  25  62  62  62 178 178 178 222 222 222 
241 241 241 222 222 222 178 178 178  62  62  62  25  25  25 
  7   7   7 178 178 178 222 222 222 241 241 241 222 222 222 
178 178 178  62  62  62  25  25  25   0   0   0  25  25  25 
 62  62  62 118 118 118 222 222 222 241 241 241 222 222 222 
178 178 178 118 118 118  62  62  62 118 118 118 178 178 178 
241 241 241 241 241 241 178 178 178 118 118 118  62  62  62 
  7   7   7  25  25  25  62  62  62 178 178 178 222 222 222 
241 241 241 222 222 222 178 178 178  62  62  62   0   0   0 
  7   7   7  62  62  62 118 118 118 222 222 222 241 241 241 
241 241 241 178 178 178 118 118 118  62  62  62   7   7   7 
118 118 118 222 222 222 241 241 241 241 241 241 178 178 178 
118 118 118  62  62  62   0   0   0   7   7   7   0   0   0 
 26  26  26  64  64  64 180 180 180 223 223 223 241 241 241 
223 223 223 180 180 180  64  64  64   0   0   0   8   8   8 
 64  64  64 121 121 121 180 180 180 241 241 241 241 241 241 
180 180 180 121 121 121  64  64  64   8   8   8  26  26  26 
 64  64  64 180 180 180 223 223 223 241 241 241 223 223 223 
180 180 180  64  64  64  26  26  26   8   8   8 180 180 180 
223 223 223 241 241 241 223 223 223 180 180 180  64  64  64 
 26  26  26   0   0   0  26  26  26  64  64  64 180 180 180 
223 223 223 241 241 241 223 223 223 180 180 180 121 121 121 
 26  26  26  64  64  64 180 180 180 223 223 223 241 241 241 
223 223 223 180 180 180 121 121 121   0   0   0   8   8   8 
 64  64  64 121 121 121 180 180 180 241 241 241 241 241 241 
223 223 223 121 121 121  64  64  64   8   8   8  26  26  26 
 64  64  64 180 180 180 223 223 223 241 241 241 223 223 223 
180 180 180  64  64  64  26  26  26   8   8   8 180 180 180 
223 223 223 241 241 241 223 223 223 180 180 180  64  64  64 
 26  26  26   0   0   0  26  26  26  64  64  64 121 121 121 
223 223 223 241 241 241 223 223 223 180 180 180 121 121 121 
 64  64  64 121 121 121 180 180 180 241 241 241 241 241 241 
180 180 180 121 121 121  64  64  64   8   8   8  26  26  26 
 64  64  64 180 180 180 223 223 223 241 241 241 223 223 223 
180 180 180  64  64  64   0   0   0   8   8   8  64  64  64 
121 121 121 223 223 223 241 241 241 241 241 241 180 180 180 
121 121 121  64  64  64   8   8   8 121 121 121 223 223 223 
241 241 241 241 241 241 180 180 180 121 121 121  64  64  64 
  0   0   0   8   8   8   0   0   0  28  28  28  65  65  65 
186 186 186 226 226 226 244 244 244 226 226 226 186 186 186 
 65  65  65   0   0   0   8   8   8  65  65  65 125 125 125 
186 186 186 244 244 244 244 244 244 186 186 186 125 125 125 
 65  65  65   8   8   8  28  28  28  65  65  65 186 186 186 
226 226 226 244 244 244 226 226 226 186 186 186  65  65  65 
 28  28  28   8   8   8 186 186 186 226 226 226 244 244 244 
226 226 226 186 186 186  65  65  65  28  28  28   0   0   0 
 28  28  28  65  65  65 186 186 186 226 226 226 244 244 244 
226 226 226 186 186 186 125 125 125  28  28  28  65  65  65 
186 186 186 226 226 226 244 244 244 226 226 226 186 186 186 
125 125 125   0   0   0   8   8   8  65  65  65 125 125 125 
186 186 186 244 244 244 244 244 244 226 226 226 125 125 125 
 65  65  65   8   8   8  28  28  28  65  65  65 186 186 186 
226 226 226 244 244 244 226 226 226 186 186 186  65  65  65 
 28  28  28   8   8   8 186 186 186 226 226 226 244 244 244 
226 226 226 186 186 186  65  65  65  28  28  28   0   0   0 
 28  28  28  65  65  65 125 125 125 226 226 226 244 244 244 
226 226 226 186 186 186 125 125 125  65  65  65 125 125 125 
186 186 186 244 244 244 244 244 244 186 186 186 125 125 125 
 65  65  65   8   8   8  28  28  28  65  65  65 186 186 186 
226 226 226 244 244 244 226 226 226 186 186 186  65  65  65 
  0   0   0   8   8   8  65  65  65 125 125 125 226 226 226 
244 244 244 244 244 244 186 186 186 125 125 125  65  65  65 
  8   8   8 125 125 125 226 226 226 244 244 244 244 244 244 
186 186 186 125 125 125  65  65  65   0   0   0   8   8   8 
  0   0   0  26  26  26  63  63  63 181 181 181 222 222 222 
240 240 240 222 222 222 181 181 181  63  63  63   0   0   0 
  8   8   8  63  63  63 121 121 121 181 181 181 240 240 240 
240 240 240 181 181 181 121 121 121  63  63  63   8   8   8 
 26  26  26  63  63  63 181 181 181 222 222 222 240 240 240 
222 222 222 181 181 181  63  63  63  26  26  26   8   8   8 
181 181 181 222 222 222 240 240 240 222 222 222 181 181 181 
 63  63  63  26  26  26   0   0   0  26  26  26  63  63  63 
181 181 181 222 222 222 240 240 240 222 222 222 181 181 181 
121 121 121  26  26  26  63  63  63 181 181 181 222 222 222 
240 240 240 222 222 222 181 181 181 121 121 121   0   0   0 
  8   8   8  63  63  63 121 121 121 181 181 181 240 240 240 
240 240 240 222 222 222 121 121 121  63  63  63   8   8   8 
 26  26  26  63  63  63 181 181 181 222 222 222 240 240 240 
222 222 222 181 181 181  63  63  63  26  26  26   8   8   8 
181 181 181 222 222 222 240 240 240 222 222 222 181 181 181 
 63  63  63  26  26  26   0   0   0  26  26  26  63  63  63 
121 121 121 222 222 222 240 240 240 222 222 222 181 181 181 
121 121 121  63  63  63 121 121 121 181 181 181 240 240 240 
240 240 240 181 181 181 121 121 121  63  63  63   8   8   8 
 26  26  26  63  63  63 181 181 181 222 222 222 240 240 240 
222 222 222 181 181 181  63  63  63   0   0   0   8   8   8 
 63  63  63 121 121 121 222 222 222 240 240 240 240 240 240 
181 181 181 121 121 121  63  63  63   8   8   8 121 121 121 
222 222 222 240 240 240 240 240 240 181 181 181 121 121 121 
 63  63  63   0   0   0   8   8   8   0   0   0  25  25  25 
 62  62  62 179 179 179 222 222 222 241 241 241 222 222 222 
179 179 179  62  62  62   0   0   0   7   7   7  62  62  62 
118 118 118 179 179 179 241 241 241 241 241 241 179 179 179 
118 118 118  62  62  62   7   7   7  25  25  25  62  62  62 
179 179 179 222 222 222 241 241 241 222 222 222 179 179 179 
 62  62  62  25  25  25   7   7   7 179 179 179 222 222 222 
241 241 241 222 222 222 179 179 179  62  62  62  25  25  25 
  0   0   0  25  25  25  62  62  62 179 179 179 222 222 222 
241 241 241 222 222 222 179 179 179 118 118 118  25  25  25 
 62  62  62 179 179 179 222 222 222 241 241 241 222 222 222 
179 179 179 118 118 118   0   0   0   7   7   7  62  62  62 
118 118 118 179 179 179 241 241 241 241 241 241 222 222 222 
118 118 118  62  62  62   7   7   7  25  25  25  62  62  62 
179 179 179 222 222 222 241 241 241 222 222 222 179 179 179 
 62  62  62  25  25  25   7   7   7 179 179 179 222 222 222 
241 241 241 222 222 222 179 179 179  62  62  62  25  25  25 
  0   0   0  25  25  25  62  62  62 118 118 118 222 222 222 
241 241 241 222 222 222 179 179 179 118 118 118  62  62  62 
118 118 118 179 179 179 241 241 241 241 241 241 179 179 179 
118 118 118  62  62  62   7   7   7  25  25  25  62  62  62 
179 179 179 222 222 222 241 241 241 222 222 222 179 179 179 
 62  62  62   0   0   0   7   7   7  62  62  62 118 118 118 
222 222 222 241 241 241 241 241 241 179 179 179 118 118 118 
 62  62  62   7   7   7 118 118 118 222 222 222 241 241 241 
241 241 241 179 179 179 118 118 118  62  62  62   0   0   0 
  7   7   7   0   0   0  25  25  25  63  63  63 181 181 181 
226 226 226 245 245 245 226 226 226 181 181 181  63  63  63 
  0   0   0   6   6   6  63  63  63 119 119 119 181 181 181 
245 245 245 245 245 245 181 181 181 119 119 119  63  63  63 
  6   6   6  25  25  25  63  63  63 181 181 181 226 226 226 
245 245 245 226 226 226 181 181 181  63  63  63  25  25  25 
  6   6   6 181 181 181 226 226 226 245 245 245 226 226 226 
181 181 181  63  63  63  25  25  25   0   0   0  25  25  25 
 63  63  63 181 181 181 226 226 226 245 245 245 226 226 226 
181 181 181 119 119 119  25  25  25  63  63  63 181 181 181 
226 226 226 245 245 245 226 226 226 181 181 181 119 119 119 
  0   0   0   6   6   6  63  63  63 119 119 119 181 181 181 
245 245 245 245 245 245 226 226 226 119 119 119  63  63  63 
  6   6   6  25  25  25  63  63  63 181 181 181 226 226 226 
245 245 245 226 226 226 181 181 181  63  63  63  25  25  25 
  6   6   6 181 181 181 226 226 226 245 245 245 226 226 226 
181 181 181  63  63  63  25  25  25   0   0   0  25  25  25 
 63  63  63 119 119 119 226 226 226 245 245 245 226 226 226 
181 181 181 119 119 119  63  63  63 119 119 119 181 181 181 
245 245 245 245 245 245 181 181 181 119 119 119  63  63  63 
  6   6   6  25  25  25  63  63  63 181 181 181 226 226 226 
245 245 245 226 226 226 181 181 181  63  63  63   0   0   0 
  6   6   6  63  63  63 119 119 119 226 226 226 245 245 245 
245 245 245 181 181 181 119 119 119  63  63  63   6   6   6 
119 119 119 226 226 226 245 245 245 245 245 245 181 181 181 
119 119 119  63  63  63   0   0   0   6   6   6   0   0   0 
 26  26  26  66  66  66 185 185 185 228 228 228 247 247 247 
228 228 228 185 185 185  66  66  66   0   0   0   6   6   6 
 66  66  66 123 123 123 185 185 185 247 247 247 247 247 247 
185 185 185 123 123 123  66  66  66   6   6   6  26  26  26 
 66  66  66 185 185 185 228 228 228 247 247 247 228 228 228 
185 185 185  66  66  66  26  26  26   6   6   6 185 185 185 
228 228 228 247 247 247 228 228 228 185 185 185  66  66  66 
 26  26  26   0   0   0  26  26  26  66  66  66 185 185 185 
228 228 228 247 247 247 228 228 228 185 185 185 123 123 123 
 26  26  26  66  66  66 185 185 185 228 228 228 247 247 247 
228 228 228 185 185 185 123 123 123   0   0   0   6   6   6 
 66  66  66 123 123 123 185 185 185 247 247 247 247 247 247 
228 228 228 123 123 123  66  66  66   6   6   6  26  26  26 
 66  66  66 185 185 185 228 228 228 247 247 247 228 228 228 
185 185 185  66  66  66  26  26  26   6   6   6 185 185 185 
228 228 228 247 247 247 228 228 228 185 185 185  66  66  66 
 26  26  26   0   0   0  26  26  26  66  66  66 123 123 123 
228 228 228 247 247 247 228 228 228 185 185 185 123 123 123 
 66  66  66 123 123 123 185 185 185 247 247 247 247 247 247 
185 185 185 123 123 123  66  66  66   6   6   6  26  26  26 
 66  66  66 185 185 185 228 228 228 247 247 247 228 228 228 
185 185 185  66  66  66   0   0   0   6   6   6  66  66  66 
123 123 123 228 228 228 247 247 247 247 247 247 185 185 185 
123 123 123  66  66  66   6   6   6 123 123 123 228 228 228 
247 247 247 247 247 247 185 185 185 123 123 123  66  66  66 
  0   0   0   6   6   6   0   0   0  25  25  25  65  65  65 
183 183 183 227 227 227 246 246 246 227 227 227 183 183 183 
 65  65  65   0   0   0   5   5   5  65  65  65 121 121 121 
183 183 183 246 246 246 246 246 246 183 183 183 121 121 121 
 65  65  65   5   5   5  25  25  25  65  65  65 183 183 183 
227 227 227 246 246 246 227 227 227 183 183 183  65  65  65 
 25  25  25   5   5   5 183 183 183 227 227 227 246 246 246 
227 227 227 183 183 183  65  65  65  25  25  25   0   0   0 
 25  25  25  65  65  65 183 183 183 227 227 227 246 246 246 
227 227 227 183 183 183 121 121 121  25  25  25  65  65  65 
183 183 183 227 227 227 246 246 246 227 227 227 183 183 183 
121 121 121   0   0   0   5   5   5  65  65  65 121 121 121 
183 183 183 246 246 246 246 246 246 227 227 227 121 121 121 
 65  65  65   5   5   5  25  25  25  65  65  65 183 183 183 
227 227 227 246 246 246 227 227 227 183 183 183  65  65  65 
 25  25  25   5   5   5 183 183 183 227 227 227 246 246 246 
227 227 227 183 183 183  65  65  65  25  25  25   0   0   0 
 25  25  25  65  65  65 121 121 121 227 227 227 246 246 246 
227 227 227 183 183 183 121 121 121  65  65  65 121 121 121 
183 183 183 246 246 246 246 246 246 183 183 183 121 121 121 
 65  65  65   5   5   5  25  25  25  65  65  65 183 183 183 
227 227 227 246 246 246 227 227 227 183 183 183  65  65  65 
  0   0   0   5   5   5  65  65  65 121 121 121 227 227 227 
246 246 246 246 246 246 183 183 183 121 121 121  65  65  65 
  5   5   5 121 121 121 227 227 227 246 246 246 246 246 246 
183 183 183 121 121 121  65  65  65   0   0   0   5   5   5 
  0   0   0  25  25  25  63  63  63 181 181 181 226 226 226 
248 248 248 226 226 226 181 181 181  63  63  63   0   0   0 
  4   4   4  63  63  63 118 118 118 181 181 181 248 248 248 
248 248 248 181 181 181 118 118 118  63  63  63   4   4   4 
 25  25  25  63  63  63 181 181 181 226 226 226 248 248 248 
226 226 226 181 181 181  63  63  63  25  25  25   4   4   4 
181 181 181 226 226 226 248 248 248 226 226 226 181 181 181 
 63  63  63  25  25  25   0   0   0  25  25  25  63  63  63 
181 181 181 226 226 226 248 248 248 226 226 226 181 181 181 
118 118 118  25  25  25  63  63  63 181 181 181 226 226 226 
248 248 248 226 226 226 181 181 181 118 118 118   0   0   0 
  4   4   4  63  63  63 118 118 118 181 181 181 248 248 248 
248 248 248 226 226 226 118 118 118  63  63  63   4   4   4 
 25  25  25  63  63  63 181 181 181 226 226 226 248 248 248 
226 226 226 181 181 181  63  63  63  25  25  25   4   4   4 
181 181 181 226 226 226 248 248 248 226 226 226 181 181 181 
 63  63  63  25  25  25   0   0   0  25  25  25  63  63  63 
118 118 118 226 226 226 248 248 248 226 226 226 181 181 181 
118 118 118  63  63  63 118 118 118 181 181 181 248 248 248 
248 248 248 181 181 181 118 118 118  63  63  63   4   4   4 
 25  25  25  63  63  63 181 181 181 226 226 226 248 248 248 
226 226 226 181 181 181  63  63  63   0   0   0   4   4   4 
 63  63  63 118 118 118 226 226 226 248 248 248 248 248 248 
181 181 181 118 118 118  63  63  63   4   4   4 118 118 118 
226 226 226 248 248 248 248 248 248 181 181 181 118 118 118 
 63  63  63   0   0   0   4   4   4 